# xmcd CD database file
#
# Track frame offsets:
#	150
#	21445
#	45608
#	68678
#	91307
#	113995
#	134318
#	152715
#	177517
#	202144
#
# Disc length: 3010 seconds
#
# Revision: 2
# Processed by: cddbd v1.5.1PL0 Copyright (c) Steve Scherf et al.
# Submitted via: CDex 1.51
#
DISCID=8c0bc00a
DTITLE=遊佐未森 - Bougainvillea
DYEAR=1900
DGENRE=Pop
TTITLE0=箱根
TTITLE1=light song
TTITLE2=ブーゲンビリア
TTITLE3=流線
TTITLE4=blue heaven
TTITLE5=桃色の雲は
TTITLE6=花林糖
TTITLE7=Daisy/Daisy
TTITLE8=ユングフラウ Schwarze Katze Version
TTITLE9=彼方
EXTD=
EXTT0=
EXTT1=
EXTT2=
EXTT3=
EXTT4=
EXTT5=
EXTT6=
EXTT7=
EXTT8=
EXTT9=
PLAYORDER=
